<?xml version="1.0" encoding="UTF-8"?>
<svg version="1.1" xmlns="http://www.w3.org/2000/svg" width="299" height="299">
  <style>
  path { stroke: #347cce; fill: #347cce; }
  @media (prefers-color-scheme: dark) {
    path { stroke: #b287ff; fill: #b287ff; }
  }
  </style>
<path d="M0 0 C25.29968022 23.50396159 37.52499442 55.89045021 38.97998047 90.09277344 C40.0281273 124.58396537 33.26176587 158.16934003 10.7734375 185.32421875 C8.01642267 188.66553919 5.44543288 192.13933723 2.875 195.625 C3.55949219 195.86992187 4.24398437 196.11484375 4.94921875 196.3671875 C8.40500541 197.85285279 11.50565405 199.76517616 14.6875 201.75 C22.51402287 206.54740675 30.61899595 210.62644752 38.875 214.625 C40.20960397 215.28911931 41.54369504 215.95429193 42.875 216.625 C42.14580636 221.48629093 40.385684 225.84188422 38.5625 230.375 C38.26666016 231.15488281 37.97082031 231.93476563 37.66601562 232.73828125 C37.36759766 233.47949219 37.06917969 234.22070312 36.76171875 234.984375 C36.49576904 235.65952148 36.22981934 236.33466797 35.95581055 237.03027344 C34.875 238.625 34.875 238.625 32.96508789 239.42236328 C29.51570243 239.75678565 26.68910925 238.16224152 23.625 236.75 C22.92262207 236.43264893 22.22024414 236.11529785 21.49658203 235.78833008 C8.34074613 229.72035096 -3.50036724 222.22560242 -15.125 213.625 C-17.85952176 211.34455826 -17.85952176 211.34455826 -20.51171875 211.859375 C-23.17081459 212.63842251 -25.45838065 213.64129651 -27.9375 214.875 C-56.56959567 228.18776686 -91.47423935 229.43405575 -121.125 218.625 C-151.02585993 206.94907735 -172.16565207 185.65997581 -185.28173828 156.57617188 C-191.65956438 141.81890894 -195.63084145 124.72633269 -196.125 108.625 C-196.15078125 107.91891602 -196.1765625 107.21283203 -196.203125 106.48535156 C-197.37329792 70.31238105 -188.64350585 33.36370127 -163.875 5.9765625 C-156.44004747 -1.95013082 -148.5812527 -8.06249848 -139.125 -13.375 C-138.03960937 -13.99890625 -136.95421875 -14.6228125 -135.8359375 -15.265625 C-92.78066943 -38.45698719 -36.61132278 -31.9926636 0 0 Z M-141.02734375 27.63671875 C-157.02637107 46.68317984 -161.50959659 72.01796974 -161.44067383 96.12817383 C-161.437517 98.42512733 -161.46107245 100.72078262 -161.48632812 103.01757812 C-161.59419764 128.18881224 -155.14757759 152.45394174 -138.125 171.625 C-137.53332031 172.31078125 -136.94164062 172.9965625 -136.33203125 173.703125 C-122.88350329 188.26997405 -103.0204915 195.94864966 -83.4765625 196.91015625 C-70.73497492 197.2683121 -58.82843223 195.92718947 -47.125 190.625 C-51.14192785 187.07005801 -55.18037265 185.04895224 -60.0625 183 C-60.75279297 182.7009375 -61.44308594 182.401875 -62.15429688 182.09375 C-69.86597602 178.7237941 -69.86597602 178.7237941 -78.125 177.625 C-75.485 169.705 -72.845 161.785 -70.125 153.625 C-53.54554271 158.14667017 -37.55880459 164.6586289 -24.125 175.625 C-7.04473967 162.458966 0.4082261 141.03770934 3.46264648 120.37207031 C4.24302282 113.28076422 4.2684215 106.19031881 4.25 99.0625 C4.24945618 98.26952515 4.24891235 97.47655029 4.24835205 96.6595459 C4.20939743 84.29191992 3.55517687 72.51950966 -0.125 60.625 C-0.34462402 59.91021484 -0.56424805 59.19542969 -0.79052734 58.45898438 C-5.21014585 44.60896968 -11.82877626 32.95526084 -22.125 22.625 C-22.87394531 21.85285156 -23.62289062 21.08070312 -24.39453125 20.28515625 C-40.91829253 4.25464158 -61.76522831 0.16894492 -84.05078125 0.4140625 C-106.89771476 0.98479546 -125.5303643 11.24874253 -141.02734375 27.63671875 Z " transform="translate(219.125,44.375)"/>
</svg>
